<?xml version="1.0" encoding="UTF-8" standalone="no"?>
<svg width="19px" height="17px" viewBox="0 0 19 17" version="1.1" xmlns="http://www.w3.org/2000/svg" xmlns:xlink="http://www.w3.org/1999/xlink">
    <!-- Generator: Sketch 40.1 (33804) - http://www.bohemiancoding.com/sketch -->
    <title>Chat</title>
    <desc>Created with Sketch.</desc>
    <defs></defs>
    <g id="Page-1" stroke="none" stroke-width="1" fill="none" fill-rule="evenodd">
        <g id="Test_1" transform="translate(-886.000000, -30.000000)" fill="#C0C4CA">
            <g id="Group-11" transform="translate(886.000000, 25.000000)">
                <g id="Chat" transform="translate(0.000000, 5.000000)">
                    <path d="M9.147,0 C4.095,0 0,3.028 0,6.816 C0,9.177 1.157,11.692 3.575,12.928 C3.575,12.942 3.57,12.953 3.57,12.969 C3.57,13.994 2.717,15.4 2.38,15.98 L2.382,15.98 C2.355,16.043 2.339,16.111 2.339,16.186 C2.339,16.472 2.57,16.702 2.857,16.702 C2.9,16.702 2.969,16.693 2.994,16.693 C3,16.693 3.003,16.693 3.002,16.695 C4.789,16.403 7.427,14.393 7.817,13.917 C8.219,13.977 8.49,13.986 8.826,13.986 C8.968,13.986 9.121,13.984 9.3,13.984 C14.352,13.984 18.267,11.098 18.207,6.816 C18.207,3.028 14.199,0 9.147,0 M9.147,1.4 C13.419,1.4 16.807,3.806 16.807,6.816 C16.793,10.155 13.616,12.605 9.344,12.605 C9.344,12.605 8.692,12.631 8.022,12.531 L7.241,12.477 L6.345,13.222 C6.137,13.461 5.234,14.216 4.456,14.705 C4.93,13.355 4.909,12.928 4.909,12.928 L4.975,12.072 L4.211,11.682 C2.272,10.689 1.4,8.625 1.4,6.816 C1.4,3.806 4.875,1.4 9.147,1.4" id="Icon-2"></path>
                </g>
            </g>
        </g>
    </g>
</svg>