<?xml version="1.0" encoding="UTF-8" standalone="no"?>
<svg width="34px" height="34px" viewBox="0 0 34 34" version="1.1" xmlns="http://www.w3.org/2000/svg" xmlns:xlink="http://www.w3.org/1999/xlink">
    <!-- Generator: Sketch 40.1 (33804) - http://www.bohemiancoding.com/sketch -->
    <title>Icon</title>
    <desc>Created with Sketch.</desc>
    <defs></defs>
    <g id="Page-1" stroke="none" stroke-width="1" fill="none" fill-rule="evenodd">
        <g id="Test_1" transform="translate(-1014.000000, -461.000000)" fill="#0F0F0F">
            <g id="table" transform="translate(60.000000, 242.000000)">
                <g id="Group-6" transform="translate(0.000000, 214.000000)">
                    <g id="Group-4" transform="translate(25.000000, 0.000000)">
                        <path d="M952.010714,15.9892857 C951.596339,15.5749107 950.923929,15.5749107 950.508036,15.9892857 L946,20.4973214 L941.491964,15.9892857 C941.077589,15.5749107 940.405179,15.5749107 939.990804,15.9892857 C939.574911,16.4036607 939.574911,17.0775893 939.990804,17.4919643 L944.497321,22 L939.990804,26.5080357 C939.574911,26.9224107 939.574911,27.5948214 939.990804,28.0107143 C940.405179,28.4250893 941.077589,28.4250893 941.491964,28.0107143 L946,23.5026786 L950.508036,28.0107143 C950.923929,28.4250893 951.596339,28.4250893 952.010714,28.0107143 C952.425089,27.5948214 952.425089,26.9224107 952.010714,26.5080357 L947.502679,22 L952.010714,17.4919643 C952.425089,17.0775893 952.425089,16.4036607 952.010714,15.9892857 M946,36.9083929 C937.799018,36.9083929 931.125,30.2025 931.125,22 C931.125,13.7975 937.799018,7.125 946,7.125 C954.2025,7.125 960.875,13.7975 960.875,22 C960.875,30.2025 954.2025,36.9083929 946,36.9083929 M946,5 C936.612054,5 929,12.6105357 929,22 C929,31.3894643 936.612054,39 946,39 C955.389464,39 963,31.3894643 963,22 C963,12.6105357 955.389464,5 946,5" id="Icon"></path>
                    </g>
                </g>
            </g>
        </g>
    </g>
</svg>