<?xml version="1.0" encoding="UTF-8" standalone="no"?>
<svg width="19px" height="18px" viewBox="0 0 19 18" version="1.1" xmlns="http://www.w3.org/2000/svg" xmlns:xlink="http://www.w3.org/1999/xlink">
    <!-- Generator: Sketch 40.1 (33804) - http://www.bohemiancoding.com/sketch -->
    <title>Icon</title>
    <desc>Created with Sketch.</desc>
    <defs></defs>
    <g id="Page-1" stroke="none" stroke-width="1" fill="none" fill-rule="evenodd">
        <g id="Test_1" transform="translate(-755.000000, -28.000000)" fill="#C0C4CA">
            <g id="Group-11-Copy" transform="translate(755.000000, 25.000000)">
                <path d="M16.0021249,10.9940136 L16.0021249,19.8741959 L13.0527969,19.8741959 L13.0527969,14.2532166 C13.0527969,13.9420122 12.7881353,13.6903145 12.4609019,13.6903145 L6.562246,13.6903145 C6.23670378,13.6903145 5.97204218,13.941208 5.97035105,14.2516083 L5.95174864,19.8741959 L2.99819285,19.8741959 L2.99819285,10.9940136 C2.99819285,10.9489814 2.98212713,10.9095783 2.97198036,10.8677627 L9.52341187,4.3758935 L16.030874,10.8605254 C16.0190361,10.9039492 16.0021249,10.946569 16.0021249,10.9940136 M18.8356105,12.0241244 L9.95042179,3.17289135 C9.83880732,3.06191923 9.68491463,3 9.52341187,3 C9.3619091,3 9.20801642,3.06191923 9.09640194,3.17289135 L0.164707182,12.0241244 C-0.0619040268,12.2484811 -0.0534483847,12.6047177 0.18246403,12.8194246 C0.418376445,13.0349357 0.792115826,13.0285025 1.01872703,12.8033417 L1.81440296,12.0144746 L1.81440296,20.4370979 C1.81440296,20.7483024 2.07991012,21 2.4062979,21 L6.54195246,21 C6.86749468,21 7.13215628,20.7491065 7.13384741,20.4387062 L7.15244982,14.8161187 L11.869007,14.8161187 L11.869007,20.4370979 C11.869007,20.7483024 12.1336686,21 12.4609019,21 L16.5940198,21 C16.9212531,21 17.1859147,20.7483024 17.1859147,20.4370979 L17.1859147,12.011258 L17.9807451,12.8041458 C18.097433,12.9183345 18.2530168,12.9770372 18.4086006,12.9770372 C18.5557288,12.976233 18.7037025,12.9247677 18.8178537,12.8194246 C19.0537661,12.6047177 19.0613762,12.2484811 18.8356105,12.0241244" id="Icon"></path>
            </g>
        </g>
    </g>
</svg>