<?xml version="1.0" encoding="UTF-8" standalone="no"?>
<svg width="234px" height="234px" viewBox="0 0 234 234" version="1.1" xmlns="http://www.w3.org/2000/svg" xmlns:xlink="http://www.w3.org/1999/xlink">
    <!-- Generator: Sketch 39.1 (31720) - http://www.bohemiancoding.com/sketch -->
    <title>odno copy</title>
    <desc>Created with Sketch.</desc>
    <defs>
        <filter x="-50%" y="-50%" width="200%" height="200%" filterUnits="objectBoundingBox" id="filter-1">
            <feOffset dx="0" dy="0" in="SourceAlpha" result="shadowOffsetOuter1"></feOffset>
            <feGaussianBlur stdDeviation="75" in="shadowOffsetOuter1" result="shadowBlurOuter1"></feGaussianBlur>
            <feColorMatrix values="0 0 0 0 0.250980392   0 0 0 0 0.592156863   0 0 0 0 0.862745098  0 0 0 0.5 0" type="matrix" in="shadowBlurOuter1" result="shadowMatrixOuter1"></feColorMatrix>
            <feMerge>
                <feMergeNode in="shadowMatrixOuter1"></feMergeNode>
                <feMergeNode in="SourceGraphic"></feMergeNode>
            </feMerge>
        </filter>
        <circle id="path-2" cx="25" cy="25" r="25"></circle>
        <mask id="mask-3" maskContentUnits="userSpaceOnUse" maskUnits="objectBoundingBox" x="0" y="0" width="50" height="50" fill="white">
            <use xlink:href="#path-2"></use>
        </mask>
    </defs>
    <g id="Page-1" stroke="none" stroke-width="1" fill="none" fill-rule="evenodd" opacity="0.9">
        <g id="Home_enter" transform="translate(-675.000000, -545.000000)">
            <g id="ОКНО-ВХОДА" filter="url(#filter-1)" transform="translate(408.000000, 186.000000)">
                <g id="social-copy" transform="translate(142.000000, 451.000000)">
                    <g id="odno-copy" transform="translate(217.000000, 0.000000)">
                        <use id="Oval-10-Copy" stroke="#EF8C31" mask="url(#mask-3)" stroke-width="2" fill="#EF8C31" xlink:href="#path-2"></use>
                        <g id="odnoklassniki" transform="translate(19.000000, 15.000000)" fill="#FFFFFF">
                            <g id="Odnoklassniki">
                                <path d="M10.6666667,9.5 C10,9.5 8.66666667,10.7666667 6,10.7666667 C3.33333333,10.7666667 2,9.5 1.33333333,9.5 C0.597333333,9.5 0,10.0674667 0,10.7666667 C0,11.4 0.378666667,11.7046333 0.666666667,11.8648667 C1.45666667,12.3037667 4,13.3 4,13.3 L1.16666667,16.7440667 C1.16666667,16.7440667 0.666666667,17.3362333 0.666666667,17.7333333 C0.666666667,18.4325333 1.264,19 2,19 C2.68066667,19 2.98933333,18.5845333 2.98933333,18.5845333 C2.98933333,18.5845333 5.99533333,15.1955667 6,15.2 C6.00466667,15.1955667 9.01066667,18.5845333 9.01066667,18.5845333 C9.01066667,18.5845333 9.31933333,19 10,19 C10.736,19 11.3333333,18.4325333 11.3333333,17.7333333 C11.3333333,17.3362333 10.8333333,16.7440667 10.8333333,16.7440667 L8,13.3 C8,13.3 10.5433333,12.3037667 11.3333333,11.8648667 C11.6213333,11.7046333 12,11.4 12,10.7666667 C12,10.0674667 11.4026667,9.5 10.6666667,9.5 L10.6666667,9.5 Z" id="K"></path>
                                <path d="M6,0 C3.42266667,0 1.33333333,1.98486667 1.33333333,4.43333333 C1.33333333,6.8818 3.42266667,8.86666667 6,8.86666667 C8.57666667,8.86666667 10.6666667,6.8818 10.6666667,4.43333333 C10.6666667,1.98486667 8.57666667,0 6,0 L6,0 Z M6,6.65 C4.71133333,6.65 3.66666667,5.6582 3.66666667,4.43333333 C3.66666667,3.2091 4.71133333,2.21666667 6,2.21666667 C7.288,2.21666667 8.33333333,3.2091 8.33333333,4.43333333 C8.33333333,5.6582 7.288,6.65 6,6.65 L6,6.65 Z" id="O"></path>
                            </g>
                        </g>
                    </g>
                </g>
            </g>
        </g>
    </g>
</svg>