<?xml version="1.0" encoding="UTF-8" standalone="no"?>
<svg width="48px" height="48px" viewBox="0 0 48 48" version="1.1" xmlns="http://www.w3.org/2000/svg" xmlns:xlink="http://www.w3.org/1999/xlink">
    <!-- Generator: Sketch 40.1 (33804) - http://www.bohemiancoding.com/sketch -->
    <title>Icon 2</title>
    <desc>Created with Sketch.</desc>
    <defs>
        <rect id="path-1" x="0" y="0" width="48" height="48" rx="24"></rect>
        <mask id="mask-2" maskContentUnits="userSpaceOnUse" maskUnits="objectBoundingBox" x="0" y="0" width="48" height="48" fill="white">
            <use xlink:href="#path-1"></use>
        </mask>
        <mask id="mask-4" maskContentUnits="userSpaceOnUse" maskUnits="objectBoundingBox" x="0" y="0" width="48" height="48" fill="white">
            <use xlink:href="#path-1"></use>
        </mask>
    </defs>
    <g id="Page-1" stroke="none" stroke-width="1" fill="none" fill-rule="evenodd">
        <g id="Test_1" transform="translate(-1062.000000, -14.000000)">
            <g id="Icon-2" transform="translate(1062.000000, 14.000000)">
                <mask id="mask-3" fill="white">
                    <use xlink:href="#path-1"></use>
                </mask>
                <g id="Mask" stroke="#C0C4CA" mask="url(#mask-2)" stroke-width="2" fill="#FFFFFF">
                    <use mask="url(#mask-4)" xlink:href="#path-1"></use>
                </g>
                <path d="M23.7857785,13 C19.0924663,13 14.2931007,16.9185831 14.2931007,20.4363204 L14.2931007,25.7497753 C14.2931007,28.0703674 15.2763415,32.7672746 18.2494317,35.1507798 L10.1228655,39.5600846 C10.1228655,39.5600846 8,40.5037801 8,41.6847476 L8,44.8735395 C8,46.0473169 8.95268306,47 10.1228655,47 L37.3336505,47 C38.5056305,47 39.4583135,46.0473169 39.4583135,44.8735395 L39.4583135,41.6847476 C39.4583135,40.433677 37.3336505,39.5600846 37.3336505,39.5600846 L29.4120011,35.1705525 C32.356331,32.8535554 33.1544277,28.3022469 33.1544277,25.7497753 L33.1544277,20.4363204 C33.1544277,16.9185831 28.4808882,13 23.7857785,13" fill="#C0C4CA" mask="url(#mask-3)"></path>
            </g>
        </g>
    </g>
</svg>