<?xml version="1.0" encoding="UTF-8" standalone="no"?>
<svg width="234px" height="234px" viewBox="0 0 234 234" version="1.1" xmlns="http://www.w3.org/2000/svg" xmlns:xlink="http://www.w3.org/1999/xlink">
    <!-- Generator: Sketch 39.1 (31720) - http://www.bohemiancoding.com/sketch -->
    <title>vk</title>
    <desc>Created with Sketch.</desc>
    <defs>
        <filter x="-50%" y="-50%" width="200%" height="200%" filterUnits="objectBoundingBox" id="filter-1">
            <feOffset dx="0" dy="0" in="SourceAlpha" result="shadowOffsetOuter1"></feOffset>
            <feGaussianBlur stdDeviation="75" in="shadowOffsetOuter1" result="shadowBlurOuter1"></feGaussianBlur>
            <feColorMatrix values="0 0 0 0 0.250980392   0 0 0 0 0.592156863   0 0 0 0 0.862745098  0 0 0 0.5 0" type="matrix" in="shadowBlurOuter1" result="shadowMatrixOuter1"></feColorMatrix>
            <feMerge>
                <feMergeNode in="shadowMatrixOuter1"></feMergeNode>
                <feMergeNode in="SourceGraphic"></feMergeNode>
            </feMerge>
        </filter>
        <circle id="path-2" cx="25" cy="25" r="25"></circle>
        <mask id="mask-3" maskContentUnits="userSpaceOnUse" maskUnits="objectBoundingBox" x="0" y="0" width="50" height="50" fill="white">
            <use xlink:href="#path-2"></use>
        </mask>
    </defs>
    <g id="Page-1" stroke="none" stroke-width="1" fill="none" fill-rule="evenodd" opacity="0.9">
        <g id="Home_enter" transform="translate(-458.000000, -545.000000)">
            <g id="ОКНО-ВХОДА" filter="url(#filter-1)" transform="translate(408.000000, 186.000000)">
                <g id="social-copy" transform="translate(142.000000, 451.000000)">
                    <g id="vk">
                        <use id="Oval-10" stroke="#D4D8DF" mask="url(#mask-3)" stroke-width="2" fill="#FFFFFF" xlink:href="#path-2"></use>
                        <path d="M24.7487959,32.5998639 C25.4824945,32.5998639 25.4824945,31.5426041 25.4824945,31.1324666 C25.4824945,30.3987679 26.2161932,29.6650693 26.9498918,29.6650693 C27.6835905,29.6650693 28.9418836,30.9233625 29.8846864,31.8661652 C30.618385,32.5998639 30.618385,32.5998639 31.3520837,32.5998639 L33.5531796,32.5998639 C33.5531796,32.5998639 35.0205769,32.5441028 35.0205769,31.1324666 C35.0205769,30.6739049 34.5179933,29.8961844 32.819481,28.197672 C31.3520837,26.7302747 30.5993089,27.4881854 32.819481,24.5291788 C34.1716876,22.7272149 35.1555775,21.0947354 34.9868268,20.6237009 C34.8254131,20.1739436 31.0644738,19.4578538 30.618385,20.1269869 C29.1509878,22.3280829 28.8817204,22.8673514 28.4172891,23.7954801 C27.6835905,25.2628774 27.6109543,25.9965761 26.9498918,25.9965761 C26.2829598,25.9965761 26.2161932,24.572467 26.2161932,23.7954801 C26.2161932,21.3698724 26.5676348,19.654485 25.4824945,19.3932883 L23.2813986,19.3932883 C22.1001438,19.3932883 21.0803027,20.1269869 21.0803027,20.1269869 C21.0803027,20.1269869 20.1697827,20.8372072 20.346604,20.8606856 C20.5652462,20.8900335 21.8140013,20.5569343 21.8140013,21.5943842 L21.8140013,23.0617815 C21.8140013,23.0617815 21.8206046,25.9965761 21.0803027,25.9965761 C20.346604,25.9965761 18.8792067,23.0617815 17.4118095,20.8606856 C16.835856,19.9971223 16.6781108,20.1269869 15.9444122,20.1269869 C15.1578872,20.1269869 14.4777486,20.1578023 13.7433162,20.1578023 C13.0096176,20.1578023 12.9157042,20.6251683 13.0096176,20.8606856 C14.4770149,24.5291788 15.5313398,26.8329925 18.3193947,29.7355044 C20.8763345,32.3980967 22.5843849,32.5397006 24.0150973,32.5998639 C24.3819466,32.6152715 24.0150973,32.5998639 24.7487959,32.5998639 L24.7487959,32.5998639 Z" id="VK" fill="#D4D8DF"></path>
                    </g>
                </g>
            </g>
        </g>
    </g>
</svg>